Styrbjörn Ejneby tog över familjegården 1971. Sedan dess har han och hustrun Solveig skött jordbruket i Hycklinge med häst och vagn, utan gifter och konstgödsel. Styrbjörns brinnande engagemang för naturen och kulturlandskapet har gjort honom både hatad och älskad. Men från att ha ansetts komplett galen, har samtiden sakta accepterat honom som en unik miljöhjälte och den siste av sin sort!

www.bondenstid.com



General
Complete name                    : E:Bondens.Tid.På.Jorden.2003.DVDRip.XviD-nes.avi
Format                           : AVI
Format/Info                      : Audio Video Interleave
File size                        : 802 MiB
Duration                         : 58mn 23s
Overall bit rate                 : 1 920 Kbps
Writing application              : VirtualDubMod 1.5.10.2 (build 2540/release)
Writing library                  : VirtualDubMod build 2540/release

Video
ID                               : 0
Format                           : MPEG-4 Visual
Format profile                   : AdvancedSimple@L5
Format settings, BVOP            : Yes
Format settings, QPel            : No
Format settings, GMC             : No warppoints
Format settings, Matrix          : Default (H.263)
Muxing mode                      : Packed bitstream
Codec ID                         : XVID
Codec ID/Hint                    : XviD
Duration                         : 58mn 23s
Bit rate                         : 1 719 Kbps
Width                            : 672 pixels
Height                           : 496 pixels
Display aspect ratio             : 4:3
Frame rate                       : 25.000 fps
Resolution                       : 24 bits
Colorimetry                      : 4:2:0
Scan type                        : Progressive
Bits/(Pixel*Frame)               : 0.206
Stream size                      : 718 MiB (89%)
Writing library                  : XviD 1.2.1 (UTC 2008-12-04)

Audio
ID                               : 1
Format                           : AC-3
Format/Info                      : Audio Coding 3
Codec ID                         : 2000
Duration                         : 58mn 22s
Bit rate mode                    : Constant
Bit rate                         : 192 Kbps
Channel(s)                       : 2 channels
Channel positions                : L R
Sampling rate                    : 48.0 KHz
Stream size                      : 80.2 MiB (10%)
Alignment                        : Split accross interleaves
Interleave, duration             : 40 ms (1.00 video frame)
Interleave, preload duration     : 500 ms

